<svg width="202" height="202" viewBox="0 0 202 202" fill="none" xmlns="http://www.w3.org/2000/svg">
<g clip-path="url(#clip0_28_265)">
<path d="M69.5 118.1L72.7 114.9L75.8 118.1" stroke="#2D2D2D" stroke-width="2" stroke-miterlimit="10" stroke-linecap="round" stroke-linejoin="round"/>
<path d="M72.7 130.7V114.9" stroke="#2D2D2D" stroke-width="2" stroke-miterlimit="10" stroke-linecap="round" stroke-linejoin="round"/>
<path d="M87 139.2L72.7 130.7L58.5 139.1" stroke="#2D2D2D" stroke-width="2" stroke-miterlimit="10" stroke-linecap="round" stroke-linejoin="round"/>
<path d="M86.9 135.6V139.1H81.7" stroke="#2D2D2D" stroke-width="2" stroke-miterlimit="10" stroke-linecap="round" stroke-linejoin="round"/>
<path d="M82.3 61.8999L96.6 53.3999L126.2 70.3999L111.9 78.8999" stroke="#2D2D2D" stroke-width="2" stroke-miterlimit="10" stroke-linecap="round" stroke-linejoin="round"/>
<path d="M111.9 141.7L126.2 133.2V70.3999" stroke="#2D2D2D" stroke-width="2" stroke-miterlimit="10" stroke-linecap="round" stroke-linejoin="round"/>
<path d="M58.5 135.6V139.1H63.8" stroke="#2D2D2D" stroke-width="2" stroke-miterlimit="10" stroke-linecap="round" stroke-linejoin="round"/>
<path d="M111.9 141.7L82.3 124.7V61.8999L97.1 70.3999L111.9 78.8999V141.7Z" stroke="#2D2D2D" stroke-width="2" stroke-miterlimit="10" stroke-linecap="round" stroke-linejoin="round"/>
<path d="M97.1 133.2V84.7999V70.3999" stroke="#2D2D2D" stroke-width="2" stroke-miterlimit="10" stroke-linecap="round" stroke-linejoin="round"/>
<path d="M97.1 84.7998L111.9 93.2998" stroke="#2D2D2D" stroke-width="2" stroke-miterlimit="10" stroke-linecap="round" stroke-linejoin="round"/>
<path d="M97.1 119.8L111.9 128.3" stroke="#2D2D2D" stroke-width="2" stroke-miterlimit="10" stroke-linecap="round" stroke-linejoin="round"/>
<path d="M92.1 106.6C91.2 106.3 90.5 105.3 90.5 104.4V95.9C90.5 95 91.2 94.6 92.1 94.9C93 95.2 93.7 96.2 93.7 97.1V105.6C93.7 106.5 93 106.9 92.1 106.6Z" stroke="#2D2D2D" stroke-width="2.4612" stroke-miterlimit="10" stroke-linecap="round" stroke-linejoin="round"/>
<path d="M72.7 109V104" stroke="#2D2D2D" stroke-width="2" stroke-miterlimit="10" stroke-linecap="round" stroke-linejoin="round"/>
<path d="M72.7 99.7998V94.7998" stroke="#2D2D2D" stroke-width="2" stroke-miterlimit="10" stroke-linecap="round" stroke-linejoin="round"/>
<path d="M72.7 90.6V85.7" stroke="#2D2D2D" stroke-width="2" stroke-miterlimit="10" stroke-linecap="round" stroke-linejoin="round"/>
<path d="M102.7 148.3L98.5 145.9" stroke="#2D2D2D" stroke-width="2" stroke-miterlimit="10" stroke-linecap="round" stroke-linejoin="round"/>
<path d="M94.8 143.7L90.5 141.2" stroke="#2D2D2D" stroke-width="2" stroke-miterlimit="10" stroke-linecap="round" stroke-linejoin="round"/>
<path d="M72.7 81.4V76.5" stroke="#2D2D2D" stroke-width="2" stroke-miterlimit="10" stroke-linecap="round" stroke-linejoin="round"/>
<path d="M188.2 151.3C170.7 181.4 138.1 201.8 100.8 201.8C63.5 201.8 30.9 181.5 13.5 151.3L19.6 147.8C35.9 175.8 66.2 194.8 100.9 194.8C135.6 194.8 165.9 175.9 182.2 147.8L188.2 151.3Z" fill="#C6D762"/>
<path d="M201.8 100.9C201.8 119.2 196.9 136.5 188.3 151.3L182.2 147.8C190.2 134 194.8 118 194.8 100.9C194.8 49.1 152.7 7 100.9 7V0C156.5 0 201.8 45.3 201.8 100.9Z" fill="#F3F3F3"/>
<path d="M100.9 0V7C49.1 7 7 49.1 7 100.9C7 118 11.6 134 19.6 147.8L13.5 151.3C4.9 136.5 0 119.2 0 100.9C0 45.3 45.3 0 100.9 0Z" fill="#C6D762"/>
</g>
<defs>
<clipPath id="clip0_28_265">
<rect width="201.8" height="201.8" fill="white"/>
</clipPath>
</defs>
</svg>
