<svg width="36" height="27" viewBox="0 0 36 27" fill="none" xmlns="http://www.w3.org/2000/svg">
<path d="M15.4627 18.2771L14.8691 19.0818L14.8774 19.088L14.8859 19.094L15.4627 18.2771ZM18.8458 18.2771L18.2704 17.4592L18.269 17.4602L18.8458 18.2771ZM31.1095 0H4.89055V2H31.1095V0ZM4.89055 0C2.19704 0 0 1.984 0 4.66242H2C2 3.20071 3.18604 2 4.89055 2V0ZM0 22.3376C0 24.9226 2.18252 27 4.89055 27V25C3.20057 25 2 23.7335 2 22.3376H0ZM4.89055 27H31.1095V25H4.89055V27ZM31.1095 27C33.7038 27 36 25.0296 36 22.3376H34C34 23.7856 32.744 25 31.1095 25V27ZM36 22.3376V4.66242H34V22.3376H36ZM36 4.66242C36 1.97035 33.7038 0 31.1095 0V2C32.744 2 34 3.21437 34 4.66242H36ZM0.406366 8.41301L14.8691 19.0818L16.0563 17.4723L1.59363 6.80355L0.406366 8.41301ZM14.8859 19.094C16.2466 20.0547 18.0618 20.0547 19.4225 19.094L18.269 17.4602C17.5998 17.9326 16.7086 17.9326 16.0394 17.4602L14.8859 19.094ZM19.4212 19.0949L35.4908 7.7892L34.34 6.15347L18.2704 17.4592L19.4212 19.0949ZM0 4.66242V22.3376H2V4.66242H0Z" fill="#88D24E"/>
</svg>
