<svg width="28" height="28" viewBox="0 0 28 28" fill="none" xmlns="http://www.w3.org/2000/svg">
<path d="M3.7087 1.19262L3.65303 1.2483L1.84358 3.05775C0.668245 4.2331 0.16921 5.97278 0.731458 7.57283L3.7087 1.19262ZM3.7087 1.19262C3.95287 0.963194 4.24001 0.783875 4.55388 0.665156C4.89267 0.537006 5.25485 0.482398 5.61637 0.504958C5.97789 0.527519 6.33048 0.626731 6.65071 0.796009C6.97095 0.965286 7.25151 1.20075 7.47376 1.48678L7.47394 1.487L10.6133 5.52236C11.0946 6.14113 11.2644 6.94741 11.0741 7.70856L11.0741 7.70866L10.1169 11.5411L10.1168 11.5413C10.0465 11.8234 10.0503 12.119 10.1279 12.3992C10.2055 12.6795 10.3542 12.9349 10.5596 13.1407L10.5599 13.141L14.8595 17.4406L14.8597 17.4408C15.0658 17.6467 15.3216 17.7956 15.6023 17.8732C15.883 17.9508 16.1791 17.9544 16.4616 17.8836L16.4613 17.8837L16.3401 17.3986L16.4616 17.8836L3.7087 1.19262ZM22.4783 17.3874L26.5134 20.5266L26.8205 20.132M22.4783 17.3874L0.731531 7.57304C2.33163 12.1194 4.93468 16.2471 8.34762 19.6502L8.34863 19.6512C11.7522 23.0645 15.8807 25.6676 20.4276 27.2674L20.4277 27.2675C22.0295 27.8314 23.7673 27.3325 24.9427 26.1571L26.7522 24.3476L26.7524 24.3474C27.8377 23.2636 27.7271 21.4709 26.5135 20.5267L26.8205 20.132M22.4783 17.3874L22.7851 16.9926M22.4783 17.3874L22.4781 17.3872L22.7851 16.9926M26.8205 20.132L22.7851 16.9926M26.8205 20.132C28.2712 21.2607 28.4042 23.4044 27.1057 24.7012L25.2963 26.5106C24.0013 27.8056 22.0659 28.3743 20.2617 27.7391C15.6439 26.1143 11.4512 23.4707 7.99457 20.0043L22.7851 16.9926M22.7851 16.9926C22.4196 16.7086 21.9943 16.5114 21.5414 16.4159C21.0885 16.3204 20.6198 16.3291 20.1707 16.4414L22.7851 16.9926ZM2.45576 3.67204L2.45557 3.67223C1.49005 4.63975 1.11047 6.03585 1.55024 7.28847L1.55038 7.28888C3.10772 11.7126 5.64096 15.729 8.96223 19.0401C12.2734 22.3614 16.2897 24.8946 20.7134 26.452L20.7138 26.4521C21.9664 26.8919 23.3625 26.5123 24.33 25.5468L24.3304 25.5465L26.1396 23.7372C26.3089 23.5681 26.4403 23.365 26.525 23.1412L26.0574 22.9642L26.525 23.1412C26.6097 22.9175 26.6459 22.6783 26.6311 22.4395C26.6162 22.2007 26.5508 21.9678 26.439 21.7562C26.3273 21.5447 26.1718 21.3594 25.983 21.2125C25.9829 21.2125 25.9829 21.2125 25.9829 21.2125L21.9458 18.0731L21.9453 18.0727C21.7435 17.9162 21.5088 17.8076 21.2589 17.755C21.009 17.7024 20.7505 17.7073 20.5028 17.7692C20.5027 17.7692 20.5027 17.7692 20.5026 17.7693L16.6704 18.7264L16.6703 18.7265C16.2425 18.8334 15.7943 18.8277 15.3694 18.71C14.9445 18.5923 14.5572 18.3665 14.2454 18.0548L9.94765 13.7552L9.94736 13.7549C9.63531 13.4432 9.4093 13.0561 9.29133 12.6311C9.17336 12.2062 9.16745 11.758 9.27416 11.3301C9.27417 11.3301 9.27418 11.33 9.27419 11.33L10.2331 7.49796L10.2331 7.49788C10.295 7.25012 10.2999 6.99153 10.2473 6.74162C10.1948 6.49169 10.0861 6.25698 9.92962 6.05518L9.92923 6.05468L6.78988 2.01759C6.64304 1.8287 6.45768 1.67321 6.24614 1.56146C6.03458 1.4497 5.80168 1.38424 5.56288 1.36942C5.32409 1.3546 5.08487 1.39075 4.86113 1.47549C4.6374 1.56022 4.43427 1.69157 4.2652 1.86083C4.26519 1.86085 4.26517 1.86086 4.26515 1.86088L2.45576 3.67204Z" fill="#88D24E" stroke="#88D24E"/>
</svg>
